<svg width="726" height="588" viewBox="0 0 726 588" fill="none" xmlns="http://www.w3.org/2000/svg">
<path d="M365.192 101.167C365.192 101.167 226.85 105.007 197.687 172.034C160.817 256.775 253.84 310.951 358.765 330.175C463.689 349.399 479.323 381.214 479.323 381.214" stroke="#F39200" stroke-width="1.29491" stroke-miterlimit="10" stroke-dasharray="2.59 2.59"/>
<path d="M126.738 408.155L115.046 398.42C117.307 433.6 136.879 429.673 136.879 429.673C144.07 393.606 166.24 358.66 173.038 347.956C179.836 337.253 198.889 316.085 213.26 302.243C227.631 288.4 233.788 275.998 233.788 275.998C225.088 284.855 202.962 289.886 202.962 289.886C202.962 293.858 198.99 308.207 198.99 308.207C198.99 302.715 195.94 292.328 195.94 292.328C190.29 293.093 183.917 296.874 183.917 296.874L188.194 321.014L176.883 300.643C164.064 305.167 143.954 316.231 144.956 325.538C145.923 334.541 159.878 351.231 160.745 352.266L134.14 330.568L128.108 365.006C131.124 373.3 148.48 381.212 148.48 381.212C139.679 382.585 121.582 368.02 121.582 368.02C121.582 368.02 115.044 386.623 115.044 391.397C115.046 396.03 126.052 407.446 126.738 408.155Z" fill="#ABD2F4"/>
<path d="M126.738 408.155L115.046 398.42C117.307 433.6 136.879 429.673 136.879 429.673C144.07 393.606 166.24 358.66 173.038 347.956C179.836 337.253 198.889 316.085 213.26 302.243C227.631 288.4 233.788 275.998 233.788 275.998C225.088 284.855 202.962 289.886 202.962 289.886C202.962 293.858 198.99 308.207 198.99 308.207C198.99 302.715 195.94 292.328 195.94 292.328C190.29 293.093 183.917 296.874 183.917 296.874L188.194 321.014L176.883 300.643C164.064 305.167 143.954 316.231 144.956 325.538C145.923 334.541 159.878 351.231 160.745 352.266L134.14 330.568L128.108 365.006C131.124 373.3 148.48 381.212 148.48 381.212C139.679 382.585 121.582 368.02 121.582 368.02C121.582 368.02 115.044 386.623 115.044 391.397C115.046 396.03 126.052 407.446 126.738 408.155Z" fill="#C2DCCC"/>
<path d="M136.879 429.676C148.582 430.464 155.497 408.788 157.327 402.375C159.157 395.962 163.888 388.182 173.657 379.946C183.425 371.71 191.356 357.967 191.356 357.967C182.961 363.762 171.673 361.478 171.673 361.478C192.887 351.101 194.563 339.499 194.563 339.499C207.686 332.33 222.339 299.355 222.339 299.355C229.519 291.275 233.785 276.003 233.785 276.003C233.785 276.003 227.617 288.404 213.256 302.248C198.895 316.091 179.821 337.248 173.035 347.961C166.249 358.675 144.066 393.603 136.879 429.676Z" fill="#ABD2F4"/>
<path d="M136.879 429.676C148.582 430.464 155.497 408.788 157.327 402.375C159.157 395.962 163.888 388.182 173.657 379.946C183.425 371.71 191.356 357.967 191.356 357.967C182.961 363.762 171.673 361.478 171.673 361.478C192.887 351.101 194.563 339.499 194.563 339.499C207.686 332.33 222.339 299.355 222.339 299.355C229.519 291.275 233.785 276.003 233.785 276.003C233.785 276.003 227.617 288.404 213.256 302.248C198.895 316.091 179.821 337.248 173.035 347.961C166.249 358.675 144.066 393.603 136.879 429.676Z" fill="#8EACA8"/>
<path d="M173.034 347.952L154.205 312.399" stroke="#8EACA8" stroke-width="0.562716" stroke-miterlimit="10"/>
<path d="M177.949 341.21L160.421 308.115" stroke="#8EACA8" stroke-width="0.562716" stroke-miterlimit="10"/>
<path d="M145.744 537.346C143.962 533.516 141.881 529.738 139.707 526.064C137.537 522.377 135.151 518.819 132.647 515.355L130.735 512.781C130.08 511.937 129.399 511.116 128.731 510.281C127.424 508.587 125.947 507.045 124.549 505.431C121.662 502.295 118.523 499.4 115.165 496.776L113.907 495.795L113.277 495.305L112.609 494.868L109.943 493.125C109.051 492.548 108.128 492.018 107.178 491.539C106.233 491.051 105.325 490.488 104.35 490.061C102.401 489.203 100.485 488.264 98.4571 487.596C97.4494 487.252 96.4701 486.82 95.439 486.546L92.3657 485.657C84.0885 483.467 75.4841 482.788 66.9659 483.654C62.7207 484.084 58.5471 485.05 54.5452 486.531L53.06 487.109L51.6406 487.82C51.1756 488.07 50.6763 488.268 50.238 488.56L48.9147 489.424C47.1745 490.613 45.6633 492.106 44.4538 493.832C43.2334 495.563 42.2922 497.476 41.6645 499.499C41.0165 501.524 40.6131 503.62 40.4631 505.741C40.2022 510.015 40.7179 514.3 41.9851 518.389C43.2257 522.499 45.0376 526.414 47.3677 530.019C49.6851 533.641 52.3997 536.992 55.4611 540.011C61.6643 546.009 68.8253 550.928 76.6489 554.567C68.7708 551.005 61.5432 546.151 55.2641 540.207C52.151 537.204 49.3834 533.861 47.0128 530.243C44.6189 526.625 42.7452 522.689 41.4466 518.549C40.1127 514.401 39.5419 510.045 39.7618 505.692C39.8932 503.51 40.2856 501.352 40.9306 499.264C41.561 497.156 42.5171 495.161 43.7643 493.349C45.0133 491.525 46.5807 489.942 48.3912 488.674L49.7638 487.755C50.2197 487.447 50.7273 487.236 51.2073 486.972L52.6692 486.221L54.1879 485.609C58.2591 484.052 62.5115 483.017 66.8431 482.53C75.5061 481.555 84.2739 482.152 92.7247 484.293L95.8706 485.166C96.9259 485.436 97.932 485.864 98.9655 486.205C101.044 486.866 103.016 487.803 105.019 488.66C106.021 489.088 106.96 489.653 107.933 490.143C108.913 490.624 109.866 491.157 110.789 491.739L113.553 493.503L114.242 493.947L114.894 494.442L116.196 495.433C119.66 498.079 122.901 501.004 125.888 504.179C127.33 505.804 128.853 507.364 130.2 509.069C130.887 509.91 131.59 510.739 132.265 511.59L134.235 514.183C136.817 517.673 139.275 521.256 141.518 524.971C143.761 528.687 145.898 532.445 147.796 536.409L145.744 537.346Z" fill="#8EACA8"/>
<path d="M128.703 536.187C125.354 527.372 122.135 518.516 119.046 509.617C115.976 500.709 113.006 491.759 110.565 482.641C110.24 481.507 109.998 480.348 109.711 479.204C109.423 478.059 109.186 476.899 108.966 475.736C108.475 473.413 108.209 471.048 108.171 468.673C108.113 466.295 108.336 463.918 108.834 461.592C109.317 459.256 110.195 457.019 111.43 454.978C112.667 452.928 114.39 451.213 116.446 449.985C118.52 448.807 120.846 448.143 123.23 448.049C127.989 447.821 132.612 449.315 136.875 451.245C132.585 449.378 127.942 447.961 123.242 448.259C120.903 448.386 118.627 449.071 116.607 450.257C114.621 451.485 112.967 453.181 111.79 455.198C109.401 459.219 108.663 464.024 108.804 468.658C108.875 470.993 109.172 473.316 109.69 475.594C109.926 476.741 110.168 477.885 110.479 479.017C110.791 480.15 111.039 481.295 111.379 482.42C113.944 491.458 117.043 500.349 120.24 509.195C123.438 518.04 126.804 526.833 130.275 535.57L128.703 536.187Z" fill="#8EACA8"/>
<path d="M136.879 429.676C136.879 429.676 121.183 503.546 129.492 535.882" stroke="#8EACA8" stroke-width="0.83489" stroke-miterlimit="10"/>
<path d="M149.141 536.876V497.183" stroke="#8EACA8" stroke-width="0.83489" stroke-miterlimit="10"/>
<path d="M233.787 395.236C233.787 395.236 203.23 403.744 189.183 401.556C175.136 399.369 178.563 415.224 178.563 415.224C178.563 415.224 154.386 425.097 154.386 434.76C154.386 444.423 161.625 453.44 161.625 453.44C161.625 453.44 155.91 452.297 149.687 442.009C149.687 442.009 139.699 459.201 140.888 466.339C141.663 470.736 143.418 474.903 146.025 478.528C146.025 478.528 142.724 477.471 141.387 474.618C141.387 474.618 145.656 492.902 149.14 497.183C149.14 497.183 161.276 489.724 165.825 481.769C170.373 473.814 189.942 455.196 198.042 440.345C206.143 425.495 225.88 399.63 233.787 395.236Z" fill="#ABD2F4"/>
<path d="M233.787 395.236C233.787 395.236 203.23 403.744 189.183 401.556C175.136 399.369 178.563 415.224 178.563 415.224C178.563 415.224 154.386 425.097 154.386 434.76C154.386 444.423 161.625 453.44 161.625 453.44C161.625 453.44 155.91 452.297 149.687 442.009C149.687 442.009 139.699 459.201 140.888 466.339C141.663 470.736 143.418 474.903 146.025 478.528C146.025 478.528 142.724 477.471 141.387 474.618C141.387 474.618 145.656 492.902 149.14 497.183C149.14 497.183 161.276 489.724 165.825 481.769C170.373 473.814 189.942 455.196 198.042 440.345C206.143 425.495 225.88 399.63 233.787 395.236Z" fill="#8EACA8"/>
<path d="M66.1936 419.698C66.1936 419.698 59.5804 411.224 58.4074 401.607C58.4074 401.607 38.9387 400.2 32.8398 396.681C32.8398 396.681 49.5852 413.159 66.1936 419.698Z" fill="#ABD2F4"/>
<path d="M66.1936 419.698C66.1936 419.698 59.5804 411.224 58.4074 401.607C58.4074 401.607 38.9387 400.2 32.8398 396.681C32.8398 396.681 49.5852 413.159 66.1936 419.698Z" fill="#8EACA8"/>
<path d="M36.0977 393.806C28.3775 385.95 25.755 373.11 25.755 373.11C22.1876 369.395 16.4252 357.275 16.4252 357.275C11.4017 376.655 34.7702 392.906 36.0977 393.806Z" fill="#ABD2F4"/>
<path d="M36.0977 393.806C36.1144 393.824 36.1333 393.839 36.1539 393.851" stroke="#7F51A8" stroke-width="0.22542" stroke-miterlimit="10"/>
<path d="M106.469 480.384C106.469 480.384 114.734 506.568 115.045 535.879" stroke="#8EACA8" stroke-width="0.562716" stroke-miterlimit="10"/>
<path d="M25.7549 373.11C25.7549 373.11 28.3773 385.951 36.0975 393.806C39.3091 397.293 43.7359 399.414 48.4656 399.734C48.4656 399.734 61.2845 422.557 83.3873 428.375C83.3873 428.375 70.0291 434.205 58.3807 429.107C58.3807 429.107 72.4594 453.877 82.175 466.021C86.2827 471.152 89.2992 474.776 92.248 477.14C96.2764 480.369 100.17 481.247 106.473 480.381C106.473 480.381 143.274 455.802 117.772 410.943L100.531 435.308L113.102 402.209C113.102 402.209 95.9867 369.618 66.2846 354.245L56.1516 368.574L62.7915 339.921C62.7915 339.921 31.6851 323.851 12.8232 318.257L32.0341 344.164C32.0341 344.164 51.1589 379.023 53.9499 386.36C53.9508 386.36 34.1397 383.948 25.7549 373.11Z" fill="#D9E7DE"/>
<path d="M92.2443 477.143C89.2955 474.78 86.279 471.155 82.1713 466.024C72.459 453.881 58.377 429.11 58.377 429.11C58.377 429.11 50.8588 418.34 48.0119 417.71C45.1649 417.079 31.562 454.398 92.2443 477.143Z" fill="#ABD2F4"/>
<path d="M106.469 480.384C106.469 480.384 86.7505 418.415 53.9502 386.361" stroke="#8EACA8" stroke-width="0.562716" stroke-miterlimit="10"/>
<path d="M76.6504 415.632L98.5612 381.213" stroke="#8EACA8" stroke-width="0.562716" stroke-miterlimit="10"/>
<path d="M69.7959 405.252L90.032 372.707" stroke="#8EACA8" stroke-width="0.562716" stroke-miterlimit="10"/>
<path d="M53.9506 386.361C53.9506 386.361 49.0699 357.275 49.5165 353.048C49.5165 353.048 12.4323 337.173 0 318.253C0 318.257 20.8764 356.102 53.9506 386.361Z" fill="#ABD2F4"/>
<path d="M36.0977 393.806C28.3775 385.95 25.755 373.11 25.755 373.11C22.1876 369.395 16.4252 357.275 16.4252 357.275C11.4017 376.655 34.7702 392.906 36.0977 393.806Z" fill="#8EACA8"/>
<path d="M92.2443 477.143C89.2955 474.78 86.279 471.155 82.1713 466.024C72.459 453.881 58.377 429.11 58.377 429.11C58.377 429.11 50.8588 418.34 48.0119 417.71C45.1649 417.079 31.562 454.398 92.2443 477.143Z" fill="#8EACA8"/>
<path d="M53.9506 386.361C53.9506 386.361 49.0699 357.275 49.5165 353.048C49.5165 353.048 12.4323 337.173 0 318.253C0 318.257 20.8764 356.102 53.9506 386.361Z" fill="#8EACA8"/>
<path d="M176.343 324.717C177.893 324.717 179.15 323.461 179.15 321.91C179.15 320.36 177.893 319.104 176.343 319.104C174.793 319.104 173.536 320.36 173.536 321.91C173.536 323.461 174.793 324.717 176.343 324.717Z" fill="white"/>
<path d="M149.141 359.521C150.382 359.521 151.387 358.516 151.387 357.276C151.387 356.035 150.382 355.03 149.141 355.03C147.901 355.03 146.896 356.035 146.896 357.276C146.896 358.516 147.901 359.521 149.141 359.521Z" fill="white"/>
<path d="M69.7967 372.707C70.789 372.707 71.5934 371.902 71.5934 370.91C71.5934 369.918 70.789 369.114 69.7967 369.114C68.8044 369.114 68 369.918 68 370.91C68 371.902 68.8044 372.707 69.7967 372.707Z" fill="white"/>
<path d="M165.417 441.293C166.409 441.293 167.213 440.489 167.213 439.496C167.213 438.504 166.409 437.7 165.417 437.7C164.425 437.7 163.62 438.504 163.62 439.496C163.62 440.489 164.425 441.293 165.417 441.293Z" fill="white"/>
<path d="M159.993 472.18C160.787 472.18 161.43 471.537 161.43 470.743C161.43 469.949 160.787 469.306 159.993 469.306C159.2 469.306 158.557 469.949 158.557 470.743C158.557 471.537 159.2 472.18 159.993 472.18Z" fill="white"/>
<path d="M93.4017 409.626C94.1952 409.626 94.8385 408.983 94.8385 408.19C94.8385 407.396 94.1952 406.753 93.4017 406.753C92.6081 406.753 91.9648 407.396 91.9648 408.19C91.9648 408.983 92.6081 409.626 93.4017 409.626Z" fill="white"/>
<path d="M59.1431 448.754C59.5005 448.754 59.7902 448.464 59.7902 448.107C59.7902 447.749 59.5005 447.459 59.1431 447.459C58.7858 447.459 58.4961 447.749 58.4961 448.107C58.4961 448.464 58.7858 448.754 59.1431 448.754Z" fill="white"/>
<path d="M251.647 90.6162H334.19C340.917 90.6162 347.369 93.2884 352.126 98.0451C356.882 102.802 359.555 109.253 359.555 115.98C359.555 122.707 356.883 129.159 352.126 133.916C347.369 138.673 340.917 141.345 334.19 141.345H269.389L252.035 157.139V141.345H251.647C248.316 141.345 245.018 140.689 241.941 139.414C238.863 138.139 236.067 136.271 233.712 133.916C231.357 131.56 229.488 128.764 228.214 125.687C226.939 122.609 226.283 119.311 226.283 115.98C226.283 112.649 226.939 109.351 228.214 106.274C229.489 103.196 231.357 100.4 233.712 98.0451C236.067 95.6899 238.863 93.8216 241.941 92.5469C245.018 91.2723 248.316 90.6162 251.647 90.6162Z" fill="#816DBC"/>
<path d="M319.524 120.8C321.983 120.8 323.977 118.806 323.977 116.347C323.977 113.887 321.983 111.894 319.524 111.894C317.064 111.894 315.07 113.887 315.07 116.347C315.07 118.806 317.064 120.8 319.524 120.8Z" fill="white"/>
<path d="M292.918 120.8C295.378 120.8 297.371 118.806 297.371 116.347C297.371 113.887 295.378 111.894 292.918 111.894C290.459 111.894 288.465 113.887 288.465 116.347C288.465 118.806 290.459 120.8 292.918 120.8Z" fill="white"/>
<path d="M266.313 120.8C268.772 120.8 270.766 118.806 270.766 116.347C270.766 113.887 268.772 111.894 266.313 111.894C263.853 111.894 261.859 113.887 261.859 116.347C261.859 118.806 263.853 120.8 266.313 120.8Z" fill="white"/>
<path d="M177.304 288.522C193.65 271.657 198.26 260.871 201.119 249.893C208.026 223.402 214.714 212.507 223.827 203.294C230.955 196.089 239.506 193.648 246.459 191.671C257.35 188.573 274.352 181.653 290.948 189.695C317.046 202.341 297.871 262.362 297.871 262.362C297.871 262.362 304.787 270.962 300.951 288.206C297.116 305.451 314.15 311.225 314.15 311.225C352.771 335.043 305.681 371.137 305.681 371.137C223.361 413.368 176.833 364.988 176.833 364.988C139.056 333.414 163.999 302.249 177.304 288.522Z" fill="#081D39"/>
<path d="M390.4 418.65L384.263 404.279L336.291 413.906C338.391 422.246 341.15 430.407 344.542 438.31C349.5 449.781 356.725 462.26 366.325 468.381L390.4 418.65Z" fill="#F09473"/>
<path d="M311.197 300.408L270.172 353.819L334.276 423.372L343.931 438.835L384.819 403.797C385.827 402.934 386.55 401.786 386.893 400.505C387.237 399.223 387.184 397.868 386.743 396.617C381.308 381.25 360.974 330.517 352.666 320.976C344.586 311.692 328.332 305.711 319.748 303.159L311.197 300.408Z" fill="url(#paint0_linear)"/>
<path d="M196.11 526.096L218.657 530.311L285.731 542.834C297.841 545.097 310.298 544.716 322.247 541.717C334.196 538.719 345.356 533.173 354.962 525.459C355.465 525.062 355.872 524.555 356.152 523.978C356.433 523.401 356.579 522.768 356.58 522.126C356.583 521.308 356.344 520.506 355.894 519.823C353.099 515.51 347.757 505.315 339.768 482.009C330.824 455.983 336.313 434.663 343.346 414.665C345.183 409.47 347.12 404.348 348.933 399.275C349.914 396.531 350.869 393.81 351.727 391.065C360.451 363.79 353.908 343.253 328.324 328.304C302.763 313.355 311.194 300.419 311.194 300.419C311.194 300.419 310.091 300.001 308.008 299.417C305.072 298.602 302.094 297.948 299.087 297.457L281.663 295.056L242.256 291.501C226.369 293.529 212.107 294.708 201.086 298.264C201.086 298.264 195.008 330.76 201.551 346.542C201.894 347.351 202.237 348.282 202.605 349.336C202.605 349.339 202.605 349.342 202.607 349.345C202.608 349.348 202.61 349.351 202.612 349.353C202.614 349.356 202.617 349.357 202.62 349.359C202.623 349.36 202.626 349.36 202.63 349.36C203.242 351.124 203.882 353.207 204.566 355.56C206.944 364.153 208.785 372.886 210.076 381.709C213.728 405.749 214.487 435.501 204.268 454.272C202.592 457.358 201.141 460.561 199.926 463.855C189.053 493.061 196.11 526.096 196.11 526.096Z" fill="url(#paint1_linear)"/>
<g style="mix-blend-mode:overlay" opacity="0.3">
<path d="M328.332 328.313C353.906 343.263 360.452 363.78 351.739 391.058C350.862 393.798 349.921 396.533 348.94 399.277C347.126 404.359 345.188 409.463 343.356 414.664L338.514 430.162" stroke="#050F1B" stroke-width="1.33582" stroke-miterlimit="10"/>
</g>
<path d="M201.089 298.265C201.089 298.265 184.969 303.718 176.533 311.462C167.683 319.589 157.406 336.753 154.791 353.228C152.713 366.321 153.381 401.341 155.125 417.278C155.228 418.211 155.529 419.112 156.009 419.919C156.489 420.726 157.136 421.421 157.907 421.957C158.678 422.493 159.555 422.857 160.479 423.026C161.402 423.194 162.352 423.163 163.262 422.933L207.636 412.461L208.288 361.017L201.089 298.265Z" fill="url(#paint2_linear)"/>
<path d="M288.603 217.563C302.044 250.764 299.412 267.483 294.538 275.755C293.078 278.359 291.042 280.594 288.585 282.288C286.128 283.983 283.315 285.092 280.363 285.531L278.921 285.655L279.046 287.096L281.19 299.369C281.64 301.952 281.485 304.603 280.735 307.115C279.985 309.627 278.662 311.93 276.869 313.843C275.076 315.755 272.864 317.225 270.406 318.136C267.948 319.047 265.312 319.374 262.706 319.091L257.662 318.544C252.894 318.027 248.525 315.647 245.506 311.922C242.486 308.196 241.062 303.429 241.542 298.658L244.84 265.946L244.035 265.485C238.965 262.579 235.914 255.093 236.247 249.923C236.356 248.231 236.687 243.084 239.547 241.658C241.738 240.567 245.374 241.626 250.067 244.717L250.578 245.051L251.174 244.917C251.975 244.737 267.386 241.16 276.237 230.241C273.327 238.136 267.525 245.141 258.898 251.151L249.965 257.378L260.213 253.69C260.514 253.586 287.624 243.504 288.603 217.563Z" fill="#F7CDBE"/>
<g style="mix-blend-mode:overlay">
<path d="M278.921 285.653C278.921 285.653 267.734 284.454 260.094 277.767C260.094 277.767 264.489 287.86 280.251 293.99L278.921 285.653Z" fill="#1E1E1E"/>
</g>
<g style="mix-blend-mode:overlay" opacity="0.3">
<path d="M196.11 526.095L218.657 530.311C214.599 517.891 213.172 504.763 214.467 491.762C218.461 454.757 225.32 439.759 225.2 406.92C225.077 374.817 203.61 350.457 202.63 349.354C203.242 351.118 203.882 353.201 204.566 355.554C206.944 364.147 208.785 372.881 210.076 381.703C213.728 405.744 214.487 435.495 204.268 454.267C202.592 457.352 201.141 460.555 199.926 463.849C189.053 493.06 196.11 526.095 196.11 526.095Z" fill="#050F1B"/>
</g>
<path d="M160.017 422.929L207.027 412.604L206.186 439.116L270.389 493.855L258.779 510.927L165.396 460.675C164.166 460.014 163.129 459.042 162.391 457.856C161.652 456.671 161.235 455.313 161.183 453.917L160.017 422.929Z" fill="#F7CDBE"/>
<path d="M235.042 531.772C235.042 533.681 234.718 535.577 234.084 537.377H192.656C192.022 535.577 191.698 533.681 191.698 531.772C191.698 521.273 201.394 512.755 213.369 512.755C225.344 512.755 235.042 521.273 235.042 531.772Z" fill="#8DC1FF"/>
<g style="mix-blend-mode:overlay" opacity="0.5">
<path d="M235.042 531.772C235.042 533.681 234.718 535.577 234.084 537.377H192.656C192.022 535.577 191.698 533.681 191.698 531.772C191.698 521.273 201.394 512.755 213.369 512.755C225.344 512.755 235.042 521.273 235.042 531.772Z" fill="black"/>
</g>
<path d="M234.227 535.254C234.23 535.967 234.16 536.679 234.02 537.377H192.723C192.582 536.679 192.513 535.967 192.516 535.254C192.516 526.672 201.849 519.719 213.37 519.719C224.892 519.719 234.227 526.672 234.227 535.254Z" fill="#8DC1FF"/>
<g style="mix-blend-mode:overlay" opacity="0.5">
<path d="M214.929 518.205C214.929 517.344 214.231 516.646 213.37 516.646C212.509 516.646 211.812 517.344 211.812 518.205V524.903C211.812 525.764 212.509 526.462 213.37 526.462C214.231 526.462 214.929 525.764 214.929 524.903V518.205Z" fill="#141414"/>
</g>
<path d="M323.978 172.034C327.237 172.034 329.878 169.392 329.878 166.134C329.878 162.875 327.237 160.233 323.978 160.233C320.72 160.233 318.078 162.875 318.078 166.134C318.078 169.392 320.72 172.034 323.978 172.034Z" fill="white"/>
<path d="M521.772 60.5659C526.347 60.5659 530.055 56.8575 530.055 52.2829C530.055 47.7084 526.347 44 521.772 44C517.198 44 513.489 47.7084 513.489 52.2829C513.489 56.8575 517.198 60.5659 521.772 60.5659Z" fill="#DEEDFF"/>
<path d="M115.096 299.594C118.023 299.594 120.396 297.221 120.396 294.293C120.396 291.366 118.023 288.993 115.096 288.993C112.168 288.993 109.795 291.366 109.795 294.293C109.795 297.221 112.168 299.594 115.096 299.594Z" fill="#DEEDFF"/>
<path d="M640.116 536.185H50.7819C48.0633 536.185 45.8594 537.976 45.8594 540.185C45.8594 542.394 48.0633 544.185 50.7819 544.185H640.116C642.834 544.185 645.038 542.394 645.038 540.185C645.038 537.976 642.834 536.185 640.116 536.185Z" fill="#9F5F80"/>
<path fill-rule="evenodd" clip-rule="evenodd" d="M270.393 505.543C270.393 505.543 289.075 504.413 289.587 508.57C289.886 510.991 287.448 511.028 282.233 512.886C279.318 513.924 297.144 525.409 294.454 527.176C291.859 528.88 284.631 522.424 284.631 522.424C284.631 522.424 294.918 531.501 292.278 533.683C290.268 535.344 280.575 525.061 280.575 525.061C280.575 525.061 288.852 534.466 287.607 535.68C285.06 538.163 275.345 528.27 275.345 528.27C275.345 528.27 274.6 527.57 278.112 532.674C281.77 537.993 276.516 536.823 269.8 531.558C263.096 526.302 258.779 522.616 258.779 522.616L270.393 505.543Z" fill="#F7CDBE"/>
<g style="mix-blend-mode:overlay" opacity="0.15">
<path d="M333.634 414.331C333.634 414.331 322.466 441.548 291.226 421.762C291.226 421.762 263.335 442.081 246.309 418.122" stroke="#050F1B" stroke-width="2.50467" stroke-miterlimit="10"/>
</g>
<path d="M245.713 536.189H310.51V528.548H254.756C253.593 528.548 252.447 528.83 251.417 529.371C250.387 529.912 249.504 530.695 248.844 531.652L245.713 536.189Z" fill="#9981EF"/>
<path d="M245.713 536.189H310.51V528.548H254.756C253.593 528.548 252.447 528.83 251.417 529.371C250.387 529.912 249.504 530.695 248.844 531.652L245.713 536.189Z" fill="#8DC1FF"/>
<path d="M531.032 395.649V520.966C531.032 525.268 529.323 529.394 526.281 532.436C523.239 535.478 519.113 537.187 514.811 537.187H301.944C297.642 537.187 293.516 535.478 290.474 532.436C287.432 529.394 285.723 525.268 285.723 520.966V389.927C285.722 387.145 286.826 384.475 288.792 382.506C290.758 380.538 293.426 379.43 296.209 379.428H514.811C519.113 379.428 523.239 381.137 526.281 384.179C529.323 387.221 531.032 391.347 531.032 395.649Z" fill="#F7CDBE"/>
<g style="mix-blend-mode:overlay" opacity="0.5">
<path d="M531.032 395.649V520.966C531.032 525.268 529.323 529.394 526.281 532.436C523.239 535.478 519.113 537.187 514.811 537.187H301.944C297.642 537.187 293.516 535.478 290.474 532.436C287.432 529.394 285.723 525.268 285.723 520.966V389.927C285.722 387.145 286.826 384.475 288.792 382.506C290.758 380.538 293.426 379.43 296.209 379.428H514.811C519.113 379.428 523.239 381.137 526.281 384.179C529.323 387.221 531.032 391.347 531.032 395.649Z" fill="black"/>
</g>
<path d="M531.03 395.647V520.964C531.03 525.266 529.32 529.392 526.278 532.435C523.236 535.477 519.11 537.187 514.808 537.188H306.185C301.884 537.186 297.76 535.476 294.719 532.434C291.679 529.391 289.971 525.265 289.973 520.964V389.922C289.973 388.544 290.244 387.178 290.772 385.905C291.299 384.631 292.073 383.473 293.047 382.498C294.022 381.523 295.18 380.75 296.454 380.223C297.727 379.695 299.093 379.423 300.471 379.424H514.808C519.11 379.425 523.236 381.134 526.278 384.177C529.32 387.219 531.03 391.345 531.03 395.647Z" fill="#F7CDBE"/>
<path d="M410.5 469.948C418.137 469.948 424.328 463.757 424.328 456.121C424.328 448.484 418.137 442.293 410.5 442.293C402.864 442.293 396.673 448.484 396.673 456.121C396.673 463.757 402.864 469.948 410.5 469.948Z" fill="white"/>
<g style="mix-blend-mode:overlay" opacity="0.1">
<path d="M531.03 395.647V520.964C531.029 525.266 529.32 529.392 526.278 532.435C523.235 535.477 519.11 537.187 514.807 537.188H412.545L410.496 379.422H514.807C519.11 379.423 523.236 381.133 526.278 384.176C529.32 387.218 531.03 391.345 531.03 395.647Z" fill="black"/>
</g>
<g style="mix-blend-mode:overlay" opacity="0.1">
<path d="M531.037 394.644V430.745H504.863C503.934 430.745 503.019 430.523 502.194 430.098C501.369 429.672 500.658 429.055 500.12 428.298C499.582 427.541 499.233 426.667 499.103 425.747C498.972 424.828 499.064 423.891 499.369 423.014L511.25 388.9C511.647 387.76 512.389 386.771 513.373 386.07C514.358 385.37 515.535 384.994 516.743 384.993H527.839C529.921 387.78 531.043 391.166 531.037 394.644Z" fill="#161616"/>
</g>
<path d="M701.565 300.176H401.421C399.983 300.176 398.604 299.605 397.588 298.588C396.571 297.572 396 296.193 396 294.755V83.0599C398.559 83.0057 401.124 82.9768 403.697 82.9731C469.952 82.9645 534.498 103.994 588.032 143.029C641.565 182.065 681.321 237.091 701.569 300.176H701.565Z" fill="#EDC6A2"/>
<g style="mix-blend-mode:overlay" opacity="0.3">
<path d="M701.565 300.176H401.421C399.983 300.176 398.604 299.605 397.588 298.588C396.571 297.572 396 296.193 396 294.755V83.0599C398.559 83.0057 401.124 82.9768 403.697 82.9731C469.952 82.9645 534.498 103.994 588.032 143.029C641.565 182.065 681.321 237.091 701.569 300.176H701.565Z" fill="black"/>
</g>
<path d="M724.733 86.45V286.66C724.733 287.644 724.342 288.587 723.647 289.282C722.951 289.977 722.008 290.368 721.025 290.368H409.588C408.15 290.368 406.771 289.797 405.755 288.78C404.738 287.764 404.167 286.385 404.167 284.947V86.4457C404.167 84.8112 404.489 83.1928 405.114 81.6827C405.739 80.1727 406.656 78.8006 407.812 77.6449C408.968 76.4892 410.34 75.5725 411.85 74.9471C413.36 74.3217 414.978 73.9999 416.613 74H712.288C713.923 74 715.542 74.3221 717.052 74.9478C718.562 75.5735 719.934 76.4907 721.09 77.6469C722.245 78.803 723.162 80.1755 723.787 81.686C724.412 83.1965 724.733 84.8153 724.733 86.45Z" fill="white"/>
<path d="M404.167 109.749H724.733V284.13C724.733 285.785 724.075 287.372 722.905 288.542C721.735 289.712 720.148 290.369 718.494 290.369H409.588C408.15 290.369 406.771 289.798 405.755 288.782C404.738 287.765 404.167 286.386 404.167 284.949V109.749Z" fill="#F2DDBE"/>
<path d="M724.733 86.4506V96.0992H404.167V86.4506C404.167 84.8161 404.489 83.1977 405.114 81.6876C405.739 80.1776 406.656 78.8055 407.812 77.6498C408.968 76.4941 410.34 75.5774 411.85 74.952C413.36 74.3266 414.978 74.0047 416.613 74.0049H712.287C715.587 74.0066 718.752 75.3184 721.085 77.652C723.419 79.9857 724.731 83.1503 724.733 86.4506Z" fill="#F2DDBE"/>
<path d="M423.938 91.1602C427.311 91.1602 430.046 88.4256 430.046 85.0522C430.046 81.6789 427.311 78.9443 423.938 78.9443C420.565 78.9443 417.83 81.6789 417.83 85.0522C417.83 88.4256 420.565 91.1602 423.938 91.1602Z" fill="white"/>
<path d="M449.231 85.0589C449.231 86.49 448.725 87.875 447.802 88.9693C447.58 89.2545 447.322 89.5113 447.037 89.7336C445.94 90.6564 444.553 91.1624 443.12 91.1624C441.687 91.1624 440.3 90.6564 439.204 89.7336C438.926 89.5074 438.674 89.251 438.452 88.9693C437.522 87.8762 437.011 86.4877 437.011 85.0524C437.011 83.6171 437.522 82.2286 438.452 81.1355C438.674 80.8537 438.926 80.5974 439.204 80.3711C440.3 79.4484 441.687 78.9424 443.12 78.9424C444.553 78.9424 445.94 79.4484 447.037 80.3711C447.319 80.5969 447.576 80.8533 447.802 81.1355C448.725 82.2345 449.231 83.6237 449.231 85.0589Z" fill="white"/>
<path d="M446.009 87.4722C445.872 87.6483 445.714 87.8068 445.538 87.9438L443.123 85.5208L442.65 85.0568L440.234 82.6327C440.371 82.4585 440.526 82.3003 440.698 82.1611L443.123 84.5842L443.594 85.0568L446.009 87.4722Z" fill="#F57301"/>
<path d="M446.009 82.6327L443.594 85.0568L443.123 85.5208L440.698 87.9438C440.526 87.8046 440.371 87.6464 440.234 87.4722L443.123 84.5842L445.538 82.1611C445.712 82.3002 445.87 82.4584 446.009 82.6327Z" fill="#F57301"/>
<path d="M427.693 85.3842H424.27H423.608H420.177C420.154 85.1639 420.156 84.9417 420.182 84.7218H424.266L427.688 84.7153C427.714 84.9374 427.716 85.1618 427.693 85.3842Z" fill="#F57301"/>
<path d="M724.733 86.4506V284.952C724.733 286.39 724.161 287.769 723.145 288.785C722.128 289.802 720.75 290.373 719.312 290.373H409.588C408.15 290.373 406.771 289.802 405.755 288.785C404.738 287.769 404.167 286.39 404.167 284.952V86.4506C404.167 84.8161 404.489 83.1977 405.114 81.6876C405.739 80.1776 406.656 78.8055 407.812 77.6498C408.968 76.4941 410.34 75.5774 411.85 74.952C413.36 74.3266 414.978 74.0047 416.613 74.0049H712.288C713.922 74.0049 715.541 74.3268 717.051 74.9523C718.561 75.5777 719.933 76.4945 721.088 77.6502C722.244 78.8059 723.16 80.1779 723.786 81.6879C724.411 83.1978 724.733 84.8162 724.733 86.4506V86.4506Z" stroke="white" stroke-width="1.02232" stroke-miterlimit="10"/>
<path d="M561.281 125.774H438.077C432.896 125.774 428.695 129.974 428.695 135.156V201.639C428.695 206.821 432.896 211.021 438.077 211.021H561.281C566.462 211.021 570.663 206.821 570.663 201.639V135.156C570.663 129.974 566.462 125.774 561.281 125.774Z" fill="white"/>
<path d="M518.848 169.462C519.034 169.354 519.189 169.199 519.297 169.012C519.405 168.825 519.461 168.614 519.461 168.398C519.461 168.182 519.405 167.971 519.297 167.784C519.189 167.597 519.034 167.442 518.848 167.334L503.502 158.474L488.157 149.615C487.971 149.507 487.759 149.45 487.543 149.45C487.327 149.45 487.116 149.507 486.929 149.615C486.742 149.722 486.587 149.878 486.479 150.064C486.371 150.251 486.314 150.463 486.314 150.679V186.116C486.314 186.332 486.371 186.544 486.479 186.731C486.586 186.918 486.741 187.073 486.928 187.181C487.115 187.289 487.327 187.346 487.543 187.346C487.759 187.346 487.971 187.289 488.157 187.181L503.502 178.321L518.848 169.462Z" fill="#F2DDBE"/>
<path d="M443.885 268.993C452.274 268.993 459.074 262.193 459.074 253.804C459.074 245.415 452.274 238.614 443.885 238.614C435.496 238.614 428.695 245.415 428.695 253.804C428.695 262.193 435.496 268.993 443.885 268.993Z" fill="url(#paint3_linear)"/>
<path d="M443.886 253.818C446.252 253.818 448.17 251.9 448.17 249.533C448.17 247.167 446.252 245.249 443.886 245.249C441.52 245.249 439.602 247.167 439.602 249.533C439.602 251.9 441.52 253.818 443.886 253.818Z" fill="#F2DDBE"/>
<path d="M435.344 262.36C435.344 260.094 436.244 257.922 437.846 256.32C439.447 254.718 441.62 253.818 443.886 253.818C446.151 253.818 448.324 254.718 449.925 256.32C451.527 257.922 452.427 260.094 452.427 262.36H435.344Z" fill="#F2DDBE"/>
<path d="M464.602 245.249H570.663" stroke="white" stroke-width="1.08412" stroke-miterlimit="10"/>
<path d="M464.602 262.36H528.867" stroke="white" stroke-width="1.08412" stroke-miterlimit="10"/>
<path d="M625.53 125.774H594.369C593.059 125.774 591.996 126.836 591.996 128.147V144.962C591.996 146.272 593.059 147.335 594.369 147.335H625.53C626.841 147.335 627.903 146.272 627.903 144.962V128.147C627.903 126.836 626.841 125.774 625.53 125.774Z" fill="white"/>
<path d="M614.797 136.823C614.845 136.796 614.885 136.757 614.913 136.709C614.941 136.661 614.955 136.607 614.955 136.552C614.955 136.497 614.941 136.443 614.913 136.395C614.885 136.348 614.845 136.308 614.797 136.281L610.916 134.04L607.036 131.8C606.989 131.773 606.935 131.758 606.88 131.758C606.826 131.758 606.772 131.772 606.725 131.8C606.677 131.827 606.638 131.866 606.611 131.914C606.584 131.961 606.569 132.015 606.569 132.069V141.032C606.569 141.086 606.584 141.14 606.611 141.187C606.638 141.235 606.677 141.274 606.725 141.301C606.772 141.329 606.825 141.343 606.88 141.343C606.935 141.343 606.988 141.329 607.036 141.302L610.916 139.061L614.797 136.823Z" fill="#F2DDBE"/>
<path d="M641.511 131.762H705.012" stroke="white" stroke-width="1.08412" stroke-miterlimit="10"/>
<path d="M641.511 141.346H672.142" stroke="white" stroke-width="1.08412" stroke-miterlimit="10"/>
<path d="M625.53 155.086H594.369C593.059 155.086 591.996 156.149 591.996 157.46V174.274C591.996 175.585 593.059 176.647 594.369 176.647H625.53C626.841 176.647 627.903 175.585 627.903 174.274V157.46C627.903 156.149 626.841 155.086 625.53 155.086Z" fill="white"/>
<path d="M614.797 166.136C614.845 166.109 614.886 166.07 614.914 166.022C614.942 165.974 614.956 165.92 614.956 165.865C614.956 165.809 614.942 165.755 614.914 165.708C614.886 165.66 614.845 165.621 614.797 165.594L610.916 163.353L607.036 161.112C606.989 161.085 606.935 161.07 606.88 161.07C606.826 161.07 606.772 161.084 606.725 161.111C606.677 161.139 606.638 161.178 606.611 161.225C606.584 161.273 606.569 161.326 606.569 161.381V170.344C606.569 170.399 606.584 170.452 606.611 170.499C606.639 170.547 606.678 170.586 606.725 170.613C606.772 170.64 606.826 170.655 606.88 170.655C606.935 170.655 606.988 170.64 607.036 170.613L610.916 168.372L614.797 166.136Z" fill="#F2DDBE"/>
<path d="M641.511 161.074H705.012" stroke="white" stroke-width="1.08412" stroke-miterlimit="10"/>
<path d="M641.511 170.66H672.142" stroke="white" stroke-width="1.08412" stroke-miterlimit="10"/>
<path d="M625.53 184.399H594.369C593.059 184.399 591.996 185.461 591.996 186.772V203.587C591.996 204.897 593.059 205.96 594.369 205.96H625.53C626.841 205.96 627.903 204.897 627.903 203.587V186.772C627.903 185.461 626.841 184.399 625.53 184.399Z" fill="white"/>
<path d="M614.797 195.45C614.845 195.424 614.886 195.384 614.914 195.337C614.942 195.289 614.956 195.235 614.956 195.179C614.956 195.124 614.942 195.07 614.914 195.022C614.886 194.975 614.845 194.935 614.797 194.908L610.916 192.667L607.036 190.427C606.988 190.399 606.935 190.385 606.88 190.385C606.826 190.385 606.772 190.4 606.725 190.427C606.678 190.454 606.639 190.493 606.611 190.54C606.584 190.588 606.569 190.641 606.569 190.695V199.659C606.569 199.713 606.584 199.767 606.611 199.814C606.639 199.861 606.678 199.9 606.725 199.928C606.772 199.955 606.826 199.969 606.88 199.969C606.935 199.969 606.988 199.955 607.036 199.928L610.916 197.687L614.797 195.45Z" fill="#F2DDBE"/>
<path d="M641.511 190.387H705.012" stroke="white" stroke-width="1.08412" stroke-miterlimit="10"/>
<path d="M641.511 199.973H672.142" stroke="white" stroke-width="1.08412" stroke-miterlimit="10"/>
<path d="M625.53 213.711H594.369C593.059 213.711 591.996 214.774 591.996 216.085V232.899C591.996 234.21 593.059 235.272 594.369 235.272H625.53C626.841 235.272 627.903 234.21 627.903 232.899V216.085C627.903 214.774 626.841 213.711 625.53 213.711Z" fill="white"/>
<path d="M614.797 224.76C614.845 224.734 614.886 224.694 614.914 224.647C614.942 224.599 614.956 224.545 614.956 224.489C614.956 224.434 614.942 224.38 614.914 224.332C614.886 224.285 614.845 224.245 614.797 224.218L610.916 221.978L607.036 219.737C606.988 219.71 606.935 219.695 606.88 219.695C606.826 219.695 606.772 219.71 606.725 219.737C606.678 219.764 606.639 219.803 606.611 219.85C606.584 219.898 606.569 219.951 606.569 220.006V228.969C606.569 229.024 606.584 229.077 606.611 229.125C606.638 229.172 606.677 229.211 606.725 229.239C606.772 229.266 606.826 229.28 606.88 229.28C606.935 229.28 606.989 229.265 607.036 229.238L610.916 226.997L614.797 224.76Z" fill="#F2DDBE"/>
<path d="M641.511 219.699H705.012" stroke="white" stroke-width="1.08412" stroke-miterlimit="10"/>
<path d="M641.511 229.285H672.142" stroke="white" stroke-width="1.08412" stroke-miterlimit="10"/>
<path d="M625.53 243.023H594.369C593.059 243.023 591.996 244.086 591.996 245.397V262.211C591.996 263.522 593.059 264.584 594.369 264.584H625.53C626.841 264.584 627.903 263.522 627.903 262.211V245.397C627.903 244.086 626.841 243.023 625.53 243.023Z" fill="white"/>
<path d="M614.797 254.074C614.845 254.047 614.886 254.008 614.914 253.96C614.942 253.913 614.956 253.858 614.956 253.803C614.956 253.748 614.942 253.693 614.914 253.646C614.886 253.598 614.845 253.559 614.797 253.532L610.916 251.291L607.036 249.05C606.988 249.023 606.935 249.009 606.88 249.009C606.825 249.009 606.772 249.023 606.725 249.051C606.677 249.078 606.638 249.117 606.611 249.165C606.584 249.212 606.569 249.266 606.569 249.32V258.283C606.569 258.337 606.584 258.391 606.611 258.438C606.638 258.485 606.677 258.525 606.725 258.552C606.772 258.579 606.826 258.594 606.88 258.594C606.935 258.593 606.989 258.579 607.036 258.551L610.916 256.312L614.797 254.074Z" fill="#F2DDBE"/>
<path d="M641.511 249.012H705.012" stroke="white" stroke-width="1.08412" stroke-miterlimit="10"/>
<path d="M641.511 258.597H672.142" stroke="white" stroke-width="1.08412" stroke-miterlimit="10"/>
<rect x="11" y="85" width="118.809" height="118.809" rx="30" transform="rotate(-21.3995 11 85)" fill="url(#paint4_linear)"/>
<path d="M73.8167 123.826C74.1086 124.571 74.2681 125.35 74.2951 126.164L74.5632 126.059C75.6656 125.627 76.5998 125.665 77.3657 126.173L73.968 117.503L57.5889 123.922L56.8883 122.134L78.027 113.85C78.6527 113.605 79.249 113.723 79.8161 114.205C79.3785 113.483 79.0254 112.78 78.7568 112.094L78.5292 111.513L80.6073 110.699L81.3341 112.554L83.6804 111.634L84.3809 113.422L82.0347 114.341L87.0262 127.078L84.9034 127.91L80.5686 116.849C80.341 116.268 80.0777 115.882 79.779 115.689C79.4803 115.497 79.0702 115.503 78.5488 115.707L76.1132 116.662L81.1047 129.399L78.9595 130.239L78.8632 129.994C78.0575 127.938 76.813 127.24 75.1297 127.9L73.9454 128.364C73.3217 130.017 72.0714 131.212 70.1944 131.947C68.2429 132.712 66.4646 132.713 64.8596 131.95C63.2487 131.172 62.0375 129.748 61.226 127.677C60.9225 126.903 60.6843 126.12 60.5116 125.328L62.5897 124.514C62.754 125.24 63.0025 126.027 63.3353 126.877C63.9424 128.426 64.7848 129.479 65.8624 130.036C66.9491 130.573 68.1404 130.587 69.4365 130.079C70.6431 129.606 71.4311 128.876 71.8005 127.89C72.1699 126.903 72.124 125.821 71.6628 124.644C71.3826 123.929 71.0134 123.404 70.5552 123.068C70.097 122.732 69.5849 122.674 69.0188 122.896C68.5272 123.089 68.2174 123.417 68.0894 123.879C67.9704 124.321 68.0189 124.818 68.2349 125.369C68.4334 125.875 68.7093 126.36 69.0626 126.823L67.1633 127.567C66.7387 127.098 66.4038 126.55 66.1586 125.925C65.7675 124.927 65.7518 123.988 66.1115 123.108C66.4803 122.207 67.201 121.547 68.2736 121.126C69.4504 120.665 70.5466 120.699 71.562 121.229C72.5923 121.754 73.3439 122.619 73.8167 123.826ZM97.9106 123.07L95.0057 124.209L89.3777 122.806L88.6771 121.018L90.6882 120.23C91.7549 119.795 92.4601 119.226 92.8037 118.524C93.1564 117.802 93.1576 116.994 92.8073 116.1C92.5505 115.444 92.1807 115.005 91.6979 114.782C91.2242 114.538 90.6969 114.53 90.1159 114.757C89.5796 114.968 89.2148 115.308 89.0213 115.779C88.8428 116.244 88.8586 116.745 89.0687 117.281C89.2439 117.728 89.4786 118.152 89.7729 118.552L87.7842 119.332C87.4452 118.949 87.1677 118.482 86.9517 117.931C86.5547 116.918 86.5733 115.957 87.0075 115.048C87.4359 114.124 88.2236 113.437 89.3707 112.987C90.5773 112.514 91.6916 112.507 92.7134 112.966C93.7502 113.419 94.4816 114.189 94.9078 115.277C95.3982 116.528 95.3884 117.709 94.8785 118.82C94.3777 119.91 93.4579 120.786 92.1192 121.448L97.823 122.847L97.9106 123.07ZM94.5744 109.427L83.4911 113.771L82.7906 111.983L90.1645 109.093C90.0723 108.682 89.9737 108.343 89.8686 108.075C89.4833 107.092 88.8437 106.775 87.9499 107.125C87.6222 107.254 87.1433 107.545 86.5132 107.998C85.8772 108.436 85.3656 108.731 84.9783 108.883C84.3228 109.14 83.6433 109.226 82.9397 109.141L82.283 107.465C82.9722 107.469 83.585 107.367 84.1213 107.157C84.4639 107.022 84.9652 106.723 85.6251 106.258C86.294 105.772 86.8743 105.433 87.3659 105.241C88.4236 104.826 89.324 104.8 90.0673 105.162C90.8254 105.517 91.3825 106.15 91.7387 107.058C91.8963 107.461 92.0121 107.888 92.0862 108.34L93.8739 107.639L94.5744 109.427ZM103.164 120.754L101.041 121.586L96.0499 108.849L93.7037 109.768L93.0031 107.981L95.3493 107.061L94.5262 104.961C93.3236 101.892 94.4726 99.6716 97.9734 98.2997C99.8206 97.5758 101.935 97.0736 104.317 96.7932L104.983 98.4914C102.916 98.6998 100.848 99.2097 98.7769 100.021L98.5758 100.1C99.2663 101.204 100.23 101.514 101.466 101.029C101.854 100.878 102.556 100.542 103.572 100.024C104.583 99.4899 105.32 99.1326 105.782 98.9516C106.809 98.5488 107.682 98.5162 108.398 98.854C109.115 99.1918 109.628 99.7555 109.938 100.545C109.99 100.679 110.066 100.916 110.164 101.255L112.086 100.502L112.787 102.29L104.094 105.696L107.676 114.836C107.892 115.387 108.2 115.756 108.6 115.943C109.008 116.109 109.459 116.096 109.95 115.903C110.948 115.512 111.6 114.784 111.904 113.72C112.203 112.64 112.145 111.572 111.731 110.514C111.147 109.024 110.05 108.595 108.442 109.225C108.114 109.354 107.82 109.503 107.56 109.674L106.816 107.774C107.15 107.575 107.533 107.39 107.965 107.221C109.321 106.69 110.52 106.658 111.563 107.126C112.614 107.573 113.385 108.422 113.876 109.673C114.495 111.252 114.531 112.836 113.985 114.425C113.454 116.008 112.354 117.126 110.686 117.78C109.628 118.195 108.616 118.222 107.65 117.862C106.684 117.501 105.985 116.77 105.553 115.667L101.971 106.528L98.1727 108.017L103.164 120.754ZM96.6713 104.12L97.4945 106.221L108.243 102.008C108.211 101.883 108.154 101.717 108.072 101.508C107.74 100.659 107.119 100.412 106.21 100.769C105.778 100.938 105.094 101.275 104.157 101.779C103.215 102.269 102.491 102.613 101.984 102.811C100.792 103.278 99.7669 103.337 98.9077 102.986C98.0634 102.629 97.411 102.017 96.9506 101.149C96.2799 101.893 96.1868 102.884 96.6713 104.12Z" fill="#91A577"/>
<rect x="589.894" width="74.6709" height="74.6709" rx="22.1795" transform="rotate(14.6567 589.894 0)" fill="url(#paint5_linear)"/>
<path d="M606.341 46.7094C606.038 47.8653 605.358 48.8305 604.299 49.6051C603.241 50.3797 602.122 50.6128 600.943 50.3045C600.131 50.0919 599.537 49.6738 599.162 49.0499C598.802 48.4177 598.736 47.6667 598.963 46.7969L600.827 39.6731L599.024 39.2016L599.384 37.8283L609.22 40.4014L608.86 41.7747L602.457 40.0997L602.143 41.3013L604.066 42.5746C605.052 43.1993 605.732 43.8236 606.107 44.4474C606.496 45.0628 606.574 45.8168 606.341 46.7094ZM601.333 48.8842C602.02 49.0638 602.701 48.869 603.375 48.2996C604.05 47.7303 604.489 47.0565 604.693 46.2783C604.815 45.8091 604.771 45.4184 604.559 45.1063C604.359 44.7971 603.958 44.4355 603.357 44.0215L601.717 42.9321L600.594 47.2235C600.354 48.1391 600.601 48.6926 601.333 48.8842ZM613.413 42.9656L611.61 42.4941L609.051 52.2787L607.42 51.8521L609.643 43.3549C609.76 42.9086 609.771 42.563 609.676 42.3181C609.581 42.0732 609.333 41.8983 608.932 41.7935L608.177 41.596L608.536 40.2227L609.429 40.4562C609.91 40.5819 610.215 40.9123 610.344 41.4474C610.396 40.8254 610.491 40.2511 610.629 39.7247L610.746 39.2784L612.342 39.696L611.97 41.1208L613.772 41.5923L613.413 42.9656ZM624.03 51.1534C623.76 52.1834 623.27 52.9111 622.56 53.3366C621.852 53.7507 621.052 53.8409 620.16 53.6074C619.999 53.5655 619.886 53.5299 619.821 53.5004L620.216 51.9898L620.422 52.0437C621.452 52.3132 622.117 51.8757 622.416 50.7313C622.608 49.9989 622.483 49.3305 622.042 48.726C621.612 48.1245 620.944 47.6869 620.038 47.4131L618.143 54.6571L616.529 54.235L612.24 48.8947L612.694 47.161C615.06 45.9702 617.092 45.4443 618.792 45.5833L619.089 44.4504L612.72 42.7844L613.079 41.4111L626.726 44.9811L626.367 46.3544L620.702 44.8725L620.415 45.9711C621.714 46.3353 622.713 47.0004 623.414 47.9663C624.13 48.9238 624.335 49.9861 624.03 51.1534ZM617.005 52.4154L618.406 47.0596C617.121 47.0657 615.615 47.5156 613.89 48.4092L617.005 52.4154ZM616.198 57.3397C616.954 57.5373 617.541 57.0918 617.96 56.0032C617.57 55.7178 617.192 55.5272 616.826 55.4314C616.471 55.3386 616.17 55.3454 615.922 55.4517C615.66 55.5665 615.486 55.7841 615.403 56.1045C615.325 56.402 615.361 56.6621 615.51 56.8846C615.649 57.1042 615.878 57.2559 616.198 57.3397ZM620.505 59.4567C620.056 58.5079 619.524 57.6657 618.91 56.9303C618.584 57.5665 618.169 58.0326 617.664 58.3283C617.144 58.6325 616.552 58.6978 615.888 58.5242C615.179 58.3386 614.648 57.9856 614.295 57.4653C613.939 56.9565 613.845 56.3816 614.012 55.7408C614.189 55.0656 614.564 54.5891 615.138 54.3113C615.709 54.0449 616.378 54.012 617.145 54.2126C618.003 54.4372 618.76 54.8858 619.415 55.5586C620.056 56.2398 620.566 56.9784 620.945 57.7744L620.505 59.4567ZM635.446 48.7294L633.661 48.2624L631.101 58.047L629.487 57.6248L625.199 52.2846L625.652 50.5508C627.709 49.5117 629.741 48.9915 631.746 48.9904L632.047 47.8403L625.678 46.1743L626.038 44.801L635.805 47.3561L635.446 48.7294ZM626.089 55.4704C626.244 55.7189 626.285 55.9861 626.21 56.2722C626.135 56.5583 625.969 56.7717 625.712 56.9124C625.467 57.056 625.201 57.0904 624.915 57.0156C624.629 56.9407 624.414 56.7806 624.27 56.5352C624.127 56.2897 624.092 56.0239 624.167 55.7378C624.242 55.4517 624.402 55.2369 624.647 55.0932C624.896 54.9381 625.163 54.898 625.449 54.9728C625.735 55.0477 625.949 55.2135 626.089 55.4704ZM629.968 55.7881L631.342 50.5353C629.825 50.6766 628.335 51.0936 626.87 51.7863L629.968 55.7881ZM640 49.9207L638.197 49.4492L635.638 59.2338L634.007 58.8072L636.567 49.0226L634.764 48.5511L635.123 47.1778L636.926 47.6494L637.043 47.203C637.327 46.1159 637.114 45.1552 636.403 44.3212C635.703 43.4901 634.655 42.892 633.259 42.5268C631.931 42.1795 631.191 42.2977 631.039 42.8813C630.886 43.465 631.519 43.9424 632.938 44.3136C633.51 44.4633 634.062 44.5769 634.591 44.6544L634.291 45.8045C633.817 45.7907 633.174 45.6776 632.362 45.465C630.073 44.8663 629.111 43.8688 629.477 42.4727C629.656 41.786 630.122 41.3392 630.873 41.1322C631.615 40.9108 632.525 40.9407 633.6 41.2221C635.386 41.6892 636.765 42.5391 637.738 43.772C638.712 45.0048 639.022 46.2964 638.669 47.6468L638.557 48.076L640.359 48.5475L640 49.9207Z" fill="#AD825B"/>
<rect x="596" y="377" width="91" height="91" rx="25.2778" transform="rotate(16.5081 596 377)" fill="url(#paint6_linear)"/>
<path d="M614.925 426.485L612.909 425.887L609.633 436.939L607.811 436.399L603.122 430.158L603.702 428.2C606.084 427.092 608.417 426.574 610.701 426.646L611.086 425.347L603.893 423.215L604.353 421.664L615.385 424.934L614.925 426.485ZM608.426 434.324L610.184 428.391C608.451 428.496 606.738 428.917 605.044 429.652L608.426 434.324ZM614.699 438.44L612.722 437.854C613.811 436.883 614.492 435.939 614.764 435.021C614.921 434.491 614.963 433.59 614.89 432.317C614.817 431.044 614.862 430.136 615.022 429.593C615.36 428.456 616.085 427.644 617.199 427.159L619.157 427.739C618.669 427.918 618.209 428.21 617.779 428.617C617.362 429.028 617.068 429.524 616.895 430.106C616.734 430.649 616.688 431.563 616.757 432.849C616.826 434.135 616.782 435.043 616.625 435.573C616.311 436.633 615.669 437.589 614.699 438.44ZM620.767 428.216L614.155 426.257L614.615 424.706L621.226 426.665L620.767 428.216ZM625.882 429.732L623.846 429.129L620.57 440.18L618.729 439.634L621.573 430.037C621.722 429.533 621.747 429.139 621.648 428.857C621.549 428.575 621.274 428.366 620.821 428.232L619.968 427.979L620.428 426.428L621.436 426.727C621.979 426.888 622.314 427.276 622.441 427.89C622.524 427.183 622.654 426.533 622.83 425.938L622.979 425.434L624.782 425.968L624.305 427.578L626.341 428.181L625.882 429.732ZM636.131 432.77L634.115 432.172L630.84 443.224L629.017 442.683L624.328 436.443L624.909 434.485C627.29 433.376 629.623 432.859 631.907 432.931L632.292 431.632L625.099 429.5L625.559 427.949L636.591 431.219L636.131 432.77ZM629.632 440.609L631.39 434.676C629.658 434.781 627.944 435.201 626.25 435.937L629.632 440.609ZM642.265 446.61L640.404 446.058L641.559 442.161C641.712 441.644 641.735 441.187 641.628 440.789C641.525 440.379 641.253 440.109 640.814 439.979C640.516 439.891 640.206 439.918 639.882 440.061C639.559 440.204 639.239 440.405 638.924 440.663C638.625 440.912 638.305 441.161 637.963 441.412C637.622 441.662 637.218 441.838 636.753 441.939C636.287 442.04 635.802 442.016 635.298 441.866C634.858 441.736 634.426 441.509 634.002 441.187L634.467 439.616C634.855 439.872 635.211 440.048 635.534 440.143C635.806 440.224 636.079 440.228 636.353 440.154C636.632 440.068 636.869 439.956 637.065 439.817C637.261 439.678 637.515 439.486 637.826 439.241C638.142 438.983 638.387 438.796 638.562 438.679C638.74 437.606 638.619 436.685 638.201 435.914C637.782 435.143 637.095 434.616 636.138 434.333L636.564 432.898L635.362 432.542L635.821 430.99L648.036 434.611L647.576 436.162L645.541 435.558L642.265 446.61ZM640.947 438.247C641.684 438.465 642.152 438.878 642.352 439.485L643.679 435.007L638.406 433.444C639.145 433.986 639.678 434.678 640.005 435.521C640.348 436.354 640.476 437.228 640.387 438.144C640.567 438.155 640.753 438.189 640.947 438.247ZM652.711 437.683L650.676 437.08L647.4 448.132L645.558 447.586L648.403 437.988C648.552 437.484 648.577 437.091 648.478 436.809C648.379 436.526 648.103 436.318 647.651 436.184L646.798 435.931L647.258 434.38L648.266 434.679C648.809 434.839 649.144 435.227 649.271 435.841C649.354 435.135 649.483 434.484 649.66 433.889L649.809 433.385L651.612 433.92L651.135 435.529L653.171 436.132L652.711 437.683Z" fill="#AE6D8F"/>
<defs>
<linearGradient id="paint0_linear" x1="270.172" y1="300.408" x2="421.759" y2="381.466" gradientUnits="userSpaceOnUse">
<stop stop-color="#F39200"/>
<stop offset="1" stop-color="#F83600"/>
</linearGradient>
<linearGradient id="paint1_linear" x1="193.858" y1="291.501" x2="426.476" y2="386.277" gradientUnits="userSpaceOnUse">
<stop stop-color="#F39200"/>
<stop offset="1" stop-color="#F83600"/>
</linearGradient>
<linearGradient id="paint2_linear" x1="153.501" y1="298.265" x2="238.284" y2="321.81" gradientUnits="userSpaceOnUse">
<stop stop-color="#F39200"/>
<stop offset="1" stop-color="#F83600"/>
</linearGradient>
<linearGradient id="paint3_linear" x1="428.695" y1="238.614" x2="464.849" y2="261.497" gradientUnits="userSpaceOnUse">
<stop stop-color="#F39200"/>
<stop offset="1" stop-color="#F83600"/>
</linearGradient>
<linearGradient id="paint4_linear" x1="70.4044" y1="85" x2="70.4044" y2="203.809" gradientUnits="userSpaceOnUse">
<stop stop-color="#FAFFEB"/>
<stop offset="1" stop-color="#D4E6BD"/>
</linearGradient>
<linearGradient id="paint5_linear" x1="627.229" y1="0" x2="627.229" y2="74.6709" gradientUnits="userSpaceOnUse">
<stop stop-color="#FFF1E3"/>
<stop offset="1" stop-color="#E8B586"/>
</linearGradient>
<linearGradient id="paint6_linear" x1="641.5" y1="377" x2="641.5" y2="468" gradientUnits="userSpaceOnUse">
<stop stop-color="#F7FAFF"/>
<stop offset="1" stop-color="#F7C6C6"/>
</linearGradient>
</defs>
</svg>
