<svg width="50" height="50" viewBox="0 0 50 50" fill="none" xmlns="http://www.w3.org/2000/svg">
<path d="M21.875 15.625V12.5H3.125C1.40313 12.5 0 13.9031 0 15.625V21.875H22.5344C22.1 19.9656 21.875 17.9094 21.875 15.625Z" fill="url(#paint0_linear)"/>
<path d="M49.8719 28.125C47.7406 31.4094 44.4906 34.2031 39.8344 36.8781C39.1187 37.2875 38.3125 37.5 37.5 37.5C36.6875 37.5 35.8812 37.2875 35.175 36.8844C30.5187 34.2031 27.2688 31.4062 25.1344 28.125H0V43.75C0 45.475 1.40313 46.875 3.125 46.875H46.875C48.6 46.875 50 45.475 50 43.75V28.125H49.8719ZM14.0625 37.5H7.8125C6.95 37.5 6.25 36.8 6.25 35.9375C6.25 35.075 6.95 34.375 7.8125 34.375H14.0625C14.925 34.375 15.625 35.075 15.625 35.9375C15.625 36.8 14.925 37.5 14.0625 37.5Z" fill="url(#paint1_linear)"/>
<path d="M49.0531 7.93906L38.1156 3.25156C37.7187 3.08281 37.2781 3.08281 36.8813 3.25156L25.9438 7.93906C25.3719 8.18281 25 8.74844 25 9.37344V15.6234C25 24.2203 28.1781 29.2453 36.7219 34.1672C36.9625 34.3047 37.2312 34.3734 37.5 34.3734C37.7688 34.3734 38.0375 34.3047 38.2781 34.1672C46.8219 29.2578 50 24.2328 50 15.6234V9.37344C50 8.74844 49.6281 8.18281 49.0531 7.93906ZM43.4094 15.0391L37.1594 22.8516C36.8594 23.2203 36.4094 23.4359 35.9375 23.4359C35.9156 23.4359 35.8906 23.4359 35.8719 23.4359C35.375 23.4141 34.9156 23.1578 34.6375 22.7422L31.5125 18.0547C31.0344 17.3359 31.2281 16.3672 31.9469 15.8891C32.6594 15.4141 33.6313 15.6016 34.1125 16.3234L36.0531 19.2328L40.9656 13.0891C41.5063 12.4172 42.4906 12.3109 43.1625 12.8453C43.8375 13.3797 43.9437 14.3641 43.4094 15.0391Z" fill="url(#paint2_linear)"/>
<defs>
<linearGradient id="paint0_linear" x1="0" y1="12.5" x2="11.3321" y2="29.7405" gradientUnits="userSpaceOnUse">
<stop stop-color="#F39200"/>
<stop offset="1" stop-color="#F83600"/>
</linearGradient>
<linearGradient id="paint1_linear" x1="0" y1="28.125" x2="21.654" y2="64.6736" gradientUnits="userSpaceOnUse">
<stop stop-color="#F39200"/>
<stop offset="1" stop-color="#F83600"/>
</linearGradient>
<linearGradient id="paint2_linear" x1="25" y1="3.125" x2="58.1667" y2="19.9199" gradientUnits="userSpaceOnUse">
<stop stop-color="#F39200"/>
<stop offset="1" stop-color="#F83600"/>
</linearGradient>
</defs>
</svg>
