<svg width="42" height="50" viewBox="0 0 42 50" fill="none" xmlns="http://www.w3.org/2000/svg">
<path d="M6.88556 26.4248H10.3459C7.02203 22.1199 7.02232 15.2409 10.346 10.9363H7.27736C13.1625 0.224653 28.8629 0.231985 34.7451 10.9363H31.6761C35 15.2412 34.9997 22.1202 31.6761 26.4248H35.1363C37.6757 26.4248 39.7416 24.3588 39.7416 21.8196V15.5416C39.7416 14.4775 39.3778 13.4973 38.7694 12.7165C32.8965 -4.22423 9.14681 -4.25356 3.25224 12.7168C2.64402 13.4975 2.28027 14.4776 2.28027 15.5415V21.8195C2.28027 24.3588 4.34621 26.4248 6.88556 26.4248Z" fill="url(#paint0_linear)"/>
<path d="M41.663 45.5635C39.8792 37.3638 32.3896 28.9348 21.0109 28.9336C10.0951 28.9336 2.25396 36.879 0.340914 45.5395C-0.148051 47.8382 1.60878 50.0007 3.95263 49.9998C11.331 49.9998 30.9309 49.9998 38.0693 49.977C40.3955 49.977 42.134 47.8417 41.663 45.5635Z" fill="url(#paint1_linear)"/>
<path d="M24.15 21.9226H30.7386C33.0088 15.4721 27.8793 8.30256 21.0109 8.42739C15.3573 8.42729 10.7578 13.0268 10.7578 18.6804C10.779 28.5122 23.3676 32.6145 29.1909 24.8552H24.15C22.2073 24.7835 22.2074 21.9943 24.15 21.9226Z" fill="url(#paint2_linear)"/>
<defs>
<linearGradient id="paint0_linear" x1="2.28027" y1="0" x2="36.8717" y2="31.0387" gradientUnits="userSpaceOnUse">
<stop stop-color="#F39200"/>
<stop offset="1" stop-color="#F83600"/>
</linearGradient>
<linearGradient id="paint1_linear" x1="0.258789" y1="28.9336" x2="27.3384" y2="62.6838" gradientUnits="userSpaceOnUse">
<stop stop-color="#F39200"/>
<stop offset="1" stop-color="#F83600"/>
</linearGradient>
<linearGradient id="paint2_linear" x1="10.7578" y1="8.42578" x2="35.1565" y2="23.9003" gradientUnits="userSpaceOnUse">
<stop stop-color="#F39200"/>
<stop offset="1" stop-color="#F83600"/>
</linearGradient>
</defs>
</svg>
